<?xml version="1.0" standalone="no"?>
<!DOCTYPE svg PUBLIC "-//W3C//DTD SVG 20010904//EN"
 "http://www.w3.org/TR/2001/REC-SVG-20010904/DTD/svg10.dtd">
<svg version="1.0" xmlns="http://www.w3.org/2000/svg"
 width="1542.000000pt" height="1542.000000pt" viewBox="0 0 1542.000000 1542.000000"
 preserveAspectRatio="xMidYMid meet">
<metadata>
Created by potrace 1.11, written by Peter Selinger 2001-2013
</metadata>
<g transform="translate(0.000000,1542.000000) scale(0.100000,-0.100000)"
fill="#000000" stroke="none">
<path d="M7487 15224 c-1 -1 -38 -5 -82 -8 -44 -4 -91 -8 -105 -11 -14 -2 -47
-7 -75 -10 -294 -35 -691 -146 -943 -265 -35 -17 -66 -30 -71 -30 -10 0 -238
-121 -316 -168 -401 -240 -757 -562 -1035 -937 -113 -153 -112 -152 -192 -285
-82 -138 -171 -309 -212 -410 -15 -36 -31 -74 -36 -85 -34 -73 -138 -392 -155
-475 -2 -8 -12 -51 -23 -95 -34 -133 -55 -272 -70 -455 -9 -124 -9 -8374 0
-8505 9 -111 16 -184 23 -232 3 -18 7 -50 11 -70 26 -180 111 -520 153 -618 5
-11 30 -74 56 -140 139 -353 342 -689 604 -999 73 -86 370 -373 466 -450 107
-85 334 -243 405 -282 19 -10 42 -24 50 -31 18 -14 226 -118 330 -166 193 -87
556 -204 720 -231 19 -3 49 -8 65 -11 225 -41 407 -58 630 -58 106 0 336 11
372 17 10 2 45 7 78 10 91 11 120 15 250 41 674 135 1300 470 1785 955 158
158 179 180 289 319 204 256 394 582 505 866 24 60 47 119 51 130 5 11 9 22
10 25 0 3 13 41 27 85 52 159 102 365 122 500 4 23 8 50 10 61 2 11 7 47 11
79 4 33 9 71 11 85 14 87 17 504 17 2645 0 2223 -1 2393 -17 2426 -22 47 -82
103 -125 118 -84 28 -186 4 -243 -56 -61 -65 -58 18 -58 -1395 0 -710 -2
-1293 -4 -1297 -4 -5 -168 -7 -198 -2 -5 0 -8 583 -8 1295 0 1388 2 1322 -49
1388 -60 75 -172 101 -264 60 -55 -26 -85 -55 -109 -110 -19 -43 -20 -72 -20
-1338 0 -712 -3 -1295 -7 -1295 -33 -7 -194 -3 -198 5 -4 5 -7 592 -7 1305
l-1 1296 -28 47 c-43 74 -111 111 -197 109 -27 0 -65 -7 -84 -15 -46 -19 -102
-77 -117 -124 -11 -29 -13 -303 -13 -1327 0 -709 -4 -1292 -7 -1295 -6 -4
-140 -5 -190 -1 -15 1 -16 113 -16 1284 0 706 -3 1300 -7 1321 -9 46 -75 121
-124 142 -19 8 -62 14 -96 14 -101 0 -182 -63 -206 -161 -7 -30 -11 -520 -13
-1534 -2 -819 -6 -1503 -10 -1520 -4 -16 -17 -79 -28 -140 -58 -300 -208 -594
-413 -813 -160 -169 -335 -289 -591 -402 -51 -23 -213 -71 -302 -89 -93 -19
-119 -23 -238 -36 -55 -6 -269 -6 -327 0 -51 5 -117 14 -148 20 -14 3 -38 8
-55 11 -146 26 -435 136 -534 203 -14 10 -60 40 -101 67 -286 186 -539 500
-659 819 -13 33 -27 69 -31 80 -20 46 -53 185 -77 325 -9 50 -8 4211 2 5255 9
1030 12 1116 51 1345 27 152 105 431 140 499 8 14 14 30 14 34 0 4 20 51 45
104 25 52 45 97 45 98 0 21 192 319 245 379 14 16 25 32 25 37 0 8 237 250
291 296 116 99 330 236 476 304 203 95 360 146 608 195 19 4 81 13 135 19 180
23 503 23 628 1 9 -2 40 -7 67 -10 348 -48 745 -206 1015 -405 168 -123 367
-316 406 -393 58 -115 68 -246 25 -342 -25 -58 -147 -240 -311 -466 -221 -303
-324 -500 -360 -690 -17 -86 -25 -210 -25 -390 0 -218 4 -254 52 -466 3 -12
-19 -78 -50 -155 -229 -554 -355 -949 -400 -1256 -16 -110 -35 -113 169 33
312 223 531 407 808 679 l82 81 72 -23 c40 -13 82 -25 95 -27 25 -5 78 -14
122 -21 43 -7 242 -7 295 0 133 18 291 68 390 123 25 14 54 30 65 36 58 32
180 129 251 200 129 129 215 250 297 421 83 170 125 304 162 510 24 136 25
438 0 570 -3 17 -10 59 -16 95 -7 36 -16 76 -21 89 -5 13 -11 40 -14 60 -2 20
-7 47 -10 61 -3 14 -8 41 -10 60 -7 55 -33 165 -69 295 -191 684 -588 1303
-1125 1754 -108 91 -111 94 -150 121 -19 13 -37 27 -40 31 -8 10 -277 189
-285 189 -4 0 -19 8 -33 19 -47 32 -272 146 -397 199 -266 113 -538 191 -825
237 -53 8 -188 25 -250 31 -63 6 -498 13 -503 8z"/>
<path d="M6688 11957 c-44 -20 -85 -65 -109 -121 -19 -42 -24 -72 -26 -171 -1
-66 2 -138 7 -160 5 -22 12 -56 15 -75 20 -116 110 -347 181 -465 100 -164
223 -275 306 -275 90 0 208 102 307 263 84 138 173 372 196 517 3 19 9 58 13
85 15 92 2 220 -28 288 -11 25 -37 60 -58 79 -106 96 -251 37 -382 -156 -21
-31 -42 -57 -45 -57 -4 0 -24 27 -45 60 -97 150 -239 230 -332 188z"/>
<path d="M6682 10096 c-88 -40 -135 -148 -133 -306 2 -100 7 -137 37 -258 82
-331 265 -625 430 -691 190 -76 490 370 560 830 35 230 -34 416 -163 435 -106
16 -216 -58 -310 -208 l-36 -58 -50 75 c-103 156 -233 226 -335 181z"/>
<path d="M7059 7986 c-2 -2 -37 -6 -77 -10 -292 -25 -584 -203 -826 -504 -45
-56 -102 -139 -163 -237 -25 -40 -108 -202 -141 -275 -30 -69 -118 -314 -127
-357 -2 -10 -15 -65 -28 -123 -14 -58 -30 -139 -37 -180 -6 -41 -13 -86 -16
-100 -6 -39 -18 -247 -18 -325 0 -123 14 -304 29 -385 4 -19 9 -46 12 -60 65
-360 260 -712 514 -926 71 -60 79 -66 149 -111 207 -134 448 -204 710 -206
165 -2 241 6 355 34 350 88 628 288 830 599 131 201 231 488 261 745 3 28 9
73 13 100 13 95 4 442 -14 545 -3 14 -7 42 -9 62 -29 238 -132 569 -251 804
-149 297 -305 493 -543 686 -43 35 -151 99 -224 132 -98 46 -200 73 -301 82
-45 3 -85 8 -88 10 -3 2 -8 2 -10 0z"/>
</g>
</svg>
